HIERARCHY
ROOT Hips
{
	OFFSET 0.000000 0.000000 0.000000
	CHANNELS 6 Xposition Yposition Zposition Zrotation Yrotation Xrotation 
	JOINT LeftUpLeg_virtual
	{
		OFFSET 0.000000 0.000000 0.000000
		CHANNELS 3 Zrotation Yrotation Xrotation
		JOINT LeftUpLeg
		{
			OFFSET 8.479694 -4.795517 -0.379053
			CHANNELS 3 Zrotation Yrotation Xrotation
			JOINT LeftLeg
			{
				OFFSET 0.485052 -32.551468 0.112863
				CHANNELS 3 Zrotation Yrotation Xrotation
				JOINT LeftFoot
				{
					OFFSET 0.438033 -32.635670 -3.012641
					CHANNELS 3 Zrotation Yrotation Xrotation
					JOINT LeftToeBase
					{
						OFFSET 0.970169 -13.225353 11.864223
						CHANNELS 3 Zrotation Yrotation Xrotation
						End Site
						{
							OFFSET 0.000000 0.000000 0.000000
						}
					}
				}
			}
		}
	}
	JOINT RightUpLeg_virtual
	{
		OFFSET 0.000000 0.000000 0.000000
		CHANNELS 3 Zrotation Yrotation Xrotation
		JOINT RightUpLeg
		{
			OFFSET -8.479694 -4.795517 -0.379053
			CHANNELS 3 Zrotation Yrotation Xrotation
			JOINT RightLeg
			{
				OFFSET -0.484100 -32.551483 0.112903
				CHANNELS 3 Zrotation Yrotation Xrotation
				JOINT RightFoot
				{
					OFFSET -0.438985 -32.635651 -3.012681
					CHANNELS 3 Zrotation Yrotation Xrotation
					JOINT RightToeBase
					{
						OFFSET -0.970169 -13.225354 11.864223
						CHANNELS 3 Zrotation Yrotation Xrotation
						End Site
						{
							OFFSET 0.000000 0.000000 0.000000
						}
					}
				}
			}
		}
	}
	JOINT Spine_virtual
	{
		OFFSET 0.000000 0.000000 0.000000
		CHANNELS 3 Zrotation Yrotation Xrotation
		JOINT Spine
		{
			OFFSET 0.000000 7.722015 1.166203
			CHANNELS 3 Zrotation Yrotation Xrotation
			JOINT Spine1
			{
				OFFSET 0.000000 12.024086 0.248766
				CHANNELS 3 Zrotation Yrotation Xrotation
				JOINT Spine2
				{
					OFFSET -0.000000 11.503036 -0.491240
					CHANNELS 3 Zrotation Yrotation Xrotation
					JOINT Neck_virtual
					{
						OFFSET 0.000000 0.000000 0.000000
						CHANNELS 3 Zrotation Yrotation Xrotation
						JOINT Neck
						{
							OFFSET 0.000000 18.430687 -3.123054
							CHANNELS 3 Zrotation Yrotation Xrotation
							JOINT Head
							{
								OFFSET -0.000000 9.051071 1.034021
								CHANNELS 3 Zrotation Yrotation Xrotation
								End Site
								{
									OFFSET 0.000000 0.000000 0.000000
								}
							}
						}
					}
					JOINT LeftShoulder_virtual
					{
						OFFSET 0.000000 0.000000 0.000000
						CHANNELS 3 Zrotation Yrotation Xrotation
						JOINT LeftShoulder
						{
							OFFSET 6.197824 13.665230 -4.064723
							CHANNELS 3 Zrotation Yrotation Xrotation
							JOINT LeftArm
							{
								OFFSET 7.778132 -0.187073 -1.709282
								CHANNELS 3 Zrotation Yrotation Xrotation
								JOINT LeftForeArm
								{
									OFFSET 21.954697 0.000000 -2.041093
									CHANNELS 3 Zrotation Yrotation Xrotation
									JOINT LeftHand
									{
										OFFSET 22.992908 0.000000 -0.870901
										CHANNELS 3 Zrotation Yrotation Xrotation
										End Site
										{
											OFFSET 0.000000 0.000000 0.000000
										}
									}
								}
							}
						}
					}
					JOINT RightShoulder_virtual
					{
						OFFSET 0.000000 0.000000 0.000000
						CHANNELS 3 Zrotation Yrotation Xrotation
						JOINT RightShoulder
						{
							OFFSET -6.197824 13.665230 -4.064723
							CHANNELS 3 Zrotation Yrotation Xrotation
							JOINT RightArm
							{
								OFFSET -7.778132 -0.187073 -1.709282
								CHANNELS 3 Zrotation Yrotation Xrotation
								JOINT RightForeArm
								{
									OFFSET -21.954697 0.000000 -2.041093
									CHANNELS 3 Zrotation Yrotation Xrotation
									JOINT RightHand
									{
										OFFSET -22.992908 0.000000 -0.870901
										CHANNELS 3 Zrotation Yrotation Xrotation
										End Site
										{
											OFFSET 0.000000 0.000000 0.000000
										}
									}
								}
							}
						}
					}
				}
			}
		}
	}
}
MOTION
Frames: 5
Frame Time: 0.033333
17.268164 78.555534 -58.719940 -179.498082 -73.568473 179.504857 -1.596519 -3.167041 11.015831 7.159171 3.433613 -40.057806 2.499648 4.333842 33.135625 -11.873088 -6.279618 -4.560691 0.000000 0.000000 0.000000 2.739859 -4.612270 9.495092 1.333564 3.864740 -34.934864 -0.149099 7.732307 35.806474 6.301851 1.687022 -9.791244 0.000000 0.000000 0.000000 2.443278 -1.637077 0.328034 -0.847272 1.576657 -2.255469 -0.304821 -2.759476 8.532356 -0.078949 -0.042588 0.031825 -0.353016 -1.693338 7.823094 0.026225 -3.323193 -7.947303 0.000000 0.000000 0.000000 1.408106 -1.038173 5.077013 -0.662582 -4.215549 2.076798 -63.758634 0.240899 -9.751860 -24.563826 -85.298681 36.013299 0.000000 0.000000 0.000000 -2.951612 0.600156 4.285986 28.473937 7.947761 7.306661 49.961447 7.365348 -16.082654 -15.732617 61.917919 -15.463166 0.000000 0.000000 0.000000 
17.938253 78.594368 -58.187191 -178.829939 -75.448612 178.745381 -1.382719 -3.189496 11.194106 7.001916 4.403621 -39.844506 3.873831 5.227189 36.150907 -9.934310 -4.706242 -4.947264 0.000000 0.000000 0.000000 2.706470 -4.747910 9.543873 1.205277 2.968462 -35.133428 -0.240871 7.741081 35.160755 6.426422 1.884880 -9.062439 0.000000 0.000000 0.000000 2.518806 -1.667212 0.442013 -1.051601 1.832670 -1.934664 -0.568162 -2.747938 8.671852 -0.035338 -0.050229 -0.016929 -0.762304 -1.661491 8.064206 -0.362035 -3.268090 -8.047386 0.000000 0.000000 0.000000 1.122726 -1.090077 5.149240 0.768340 -4.398322 2.131771 -63.640390 -0.879562 -7.186562 -113.452693 -87.437001 126.527260 0.000000 0.000000 0.000000 -3.237144 0.656432 4.417804 28.795340 7.554503 6.915155 50.927513 6.126715 -12.977786 -15.127025 61.930657 -15.343561 0.000000 0.000000 0.000000 
18.505686 78.608025 -57.793415 -178.602685 -76.760535 178.497964 -1.332383 -3.211016 11.410879 6.659147 4.949325 -39.568327 4.912723 5.962308 38.389550 -8.097895 -3.226856 -4.492095 0.000000 0.000000 0.000000 2.712429 -4.949496 9.668310 0.931385 2.263213 -35.479868 -0.407035 7.278861 34.621119 6.515345 2.086091 -8.472557 0.000000 0.000000 0.000000 2.628198 -1.812156 0.431753 -1.171891 2.151068 -1.675723 -0.884410 -2.670285 8.783848 -0.048492 -0.045681 -0.020251 -1.066466 -1.579476 8.225448 -0.359511 -3.257959 -8.076005 0.000000 0.000000 0.000000 0.791209 -1.047096 5.229400 1.848598 -4.343127 2.148672 -63.497284 -1.737696 -5.062112 -153.770685 -83.658725 168.365147 0.000000 0.000000 0.000000 -3.514189 0.639038 4.559375 28.771827 7.091857 6.637587 52.004859 4.705369 -9.671144 -15.126180 62.404843 -16.008263 0.000000 0.000000 0.000000 
19.101097 78.589371 -57.423515 -179.272084 -77.790411 179.233699 -1.382691 -3.381331 11.729769 6.207522 5.293908 -39.245314 5.487923 6.453157 39.510015 -7.286762 -2.743290 -4.298837 0.000000 0.000000 0.000000 2.709836 -5.171589 9.843360 0.521101 1.547174 -36.194258 -0.573130 6.379662 34.269668 6.550004 2.282107 -7.936855 0.000000 0.000000 0.000000 2.713042 -1.952172 0.423257 -1.246655 2.415041 -1.476695 -1.155158 -2.566183 8.852884 -0.020063 -0.012048 -0.011567 -1.361978 -1.585943 8.297944 0.011994 -3.221718 -8.062971 0.000000 0.000000 0.000000 0.481264 -0.942862 5.278574 2.494706 -4.253783 2.163421 -63.439678 -2.194882 -3.222010 -161.216753 -80.504475 177.224448 0.000000 0.000000 0.000000 -3.760193 0.720963 4.626866 28.327202 6.305227 6.101824 53.020429 3.423216 -6.269804 -15.357709 63.787198 -16.779157 0.000000 0.000000 0.000000 
19.853735 78.542816 -56.948822 179.747807 -78.371899 -179.853935 -1.610379 -3.258668 12.076461 5.610339 5.563832 -38.947518 6.709578 7.361631 39.764050 -5.734591 -1.317614 -4.291541 0.000000 0.000000 0.000000 2.713539 -5.259624 10.040778 0.057650 0.913157 -37.202094 -0.748746 5.409055 34.201510 6.537791 2.493765 -7.224749 0.000000 0.000000 0.000000 2.747460 -1.902940 0.656504 -1.272013 2.579535 -1.187816 -1.256535 -2.507111 8.932749 0.021826 0.017402 -0.000427 -1.383858 -1.606130 8.301876 0.883554 -3.260839 -7.977325 0.000000 0.000000 0.000000 0.340865 -1.059663 5.298859 2.532638 -4.073870 2.319777 -63.428415 -2.307279 -1.608446 -163.759140 -79.020255 -178.994492 0.000000 0.000000 0.000000 -3.865394 0.615131 4.542759 27.547367 5.516097 5.495303 53.963101 3.017548 -2.939921 -16.110258 66.408235 -18.284881 0.000000 0.000000 0.000000 
